<svg xmlns="http://www.w3.org/2000/svg" xmlns:xlink="http://www.w3.org/1999/xlink" width="240" zoomAndPan="magnify" viewBox="0 0 180 179.999997" height="240" preserveAspectRatio="xMidYMid meet" version="1.0"><defs><clipPath id="id1"><path d="M 102 86 L 144 86 L 144 144.648438 L 102 144.648438 Z M 102 86 " clip-rule="nonzero"/></clipPath><clipPath id="id2"><path d="M 35 85 L 73 85 L 73 144.648438 L 35 144.648438 Z M 35 85 " clip-rule="nonzero"/></clipPath><clipPath id="id3"><path d="M 113 86 L 144 86 L 144 144.648438 L 113 144.648438 Z M 113 86 " clip-rule="nonzero"/></clipPath><clipPath id="id4"><path d="M 103 86 L 144 86 L 144 144.648438 L 103 144.648438 Z M 103 86 " clip-rule="nonzero"/></clipPath><clipPath id="id5"><path d="M 42 129 L 73 129 L 73 144.648438 L 42 144.648438 Z M 42 129 " clip-rule="nonzero"/></clipPath><clipPath id="id6"><path d="M 38 108 L 73 108 L 73 144.648438 L 38 144.648438 Z M 38 108 " clip-rule="nonzero"/></clipPath><clipPath id="id7"><path d="M 6.015625 35.148438 L 174 35.148438 L 174 144.648438 L 6.015625 144.648438 Z M 6.015625 35.148438 " clip-rule="nonzero"/></clipPath></defs><g clip-path="url(#id1)"><path fill="#ffbd59" d="M 121.855469 86.445312 C 121.855469 86.445312 129.46875 132.457031 132.511719 133.390625 C 138.835938 131.753906 143.285156 143.445312 143.050781 144.613281 C 118.449219 144.699219 116.351562 144.613281 116.351562 144.613281 C 116.351562 144.613281 111.667969 141.335938 113.777344 134.792969 C 110.5 128.949219 102.066406 107.679688 102.066406 107.679688 C 102.066406 107.679688 111.671875 86.011719 121.855469 86.445312 " fill-opacity="1" fill-rule="nonzero"/></g><g clip-path="url(#id2)"><path fill="#ffbd59" d="M 67.167969 85.476562 C 67.167969 85.476562 59.058594 132.457031 62.109375 133.390625 C 68.429688 131.753906 72.882812 143.445312 72.648438 144.613281 C 48.042969 144.699219 45.945312 144.613281 45.945312 144.613281 C 45.945312 144.613281 41.265625 141.335938 43.371094 134.792969 C 40.09375 128.949219 35.316406 106.046875 35.316406 106.046875 C 35.316406 106.046875 56.984375 85.042969 67.167969 85.476562 " fill-opacity="1" fill-rule="nonzero"/></g><g clip-path="url(#id3)"><path fill="#ff914d" d="M 143.058594 144.5 C 143.050781 142.953125 139.238281 133.234375 133.726562 133.234375 C 133.332031 133.234375 132.925781 133.28125 132.511719 133.390625 C 129.484375 132.460938 121.941406 86.925781 121.855469 86.449219 L 121.859375 86.449219 C 121.996094 87.269531 129.496094 132.453125 132.511719 133.378906 C 132.925781 133.273438 133.332031 133.222656 133.726562 133.222656 C 139.25 133.222656 143.070312 142.984375 143.058594 144.5 M 113.230469 138.0625 C 113.230469 137.082031 113.386719 135.992188 113.773438 134.789062 C 113.777344 134.789062 113.777344 134.792969 113.777344 134.792969 C 113.390625 135.992188 113.230469 137.085938 113.230469 138.0625 " fill-opacity="1" fill-rule="nonzero"/></g><g clip-path="url(#id4)"><path fill="#ff914d" d="M 125.195312 144.640625 C 117.28125 144.640625 116.351562 144.601562 116.351562 144.601562 C 116.351562 144.601562 113.234375 142.421875 113.230469 138.0625 C 113.230469 137.085938 113.390625 135.992188 113.777344 134.792969 C 113.777344 134.792969 113.777344 134.789062 113.773438 134.789062 C 113.777344 134.785156 113.777344 134.785156 113.777344 134.78125 C 111.410156 130.566406 106.359375 118.308594 103.730469 111.820312 C 104.277344 110.554688 104.640625 109.785156 104.640625 109.785156 C 104.640625 109.785156 115.582031 97.394531 121.855469 86.449219 C 121.941406 86.925781 129.484375 132.460938 132.511719 133.390625 C 132.925781 133.28125 133.332031 133.234375 133.726562 133.234375 C 139.238281 133.234375 143.050781 142.953125 143.058594 144.5 C 143.058594 144.539062 143.058594 144.574219 143.050781 144.601562 C 134.851562 144.628906 129.148438 144.640625 125.195312 144.640625 " fill-opacity="1" fill-rule="nonzero"/></g><g clip-path="url(#id5)"><path fill="#ff914d" d="M 72.652344 144.5 C 72.648438 142.953125 68.832031 133.234375 63.320312 133.234375 C 62.925781 133.234375 62.523438 133.28125 62.109375 133.390625 C 61.625 133.242188 61.421875 131.941406 61.421875 129.859375 C 61.425781 131.9375 61.625 133.234375 62.109375 133.378906 C 62.523438 133.273438 62.925781 133.222656 63.320312 133.222656 C 68.84375 133.222656 72.664062 142.984375 72.652344 144.5 M 42.828125 138.066406 C 42.828125 137.085938 42.980469 135.992188 43.367188 134.789062 C 43.371094 134.789062 43.371094 134.792969 43.371094 134.792969 C 42.984375 135.992188 42.828125 137.085938 42.828125 138.066406 " fill-opacity="1" fill-rule="nonzero"/></g><g clip-path="url(#id6)"><path fill="#ff914d" d="M 54.789062 144.640625 C 46.878906 144.640625 45.945312 144.601562 45.945312 144.601562 C 45.945312 144.601562 42.828125 142.421875 42.828125 138.066406 C 42.828125 137.085938 42.984375 135.992188 43.371094 134.792969 C 43.371094 134.792969 43.371094 134.789062 43.367188 134.789062 C 43.371094 134.785156 43.371094 134.785156 43.371094 134.78125 C 41.820312 132.019531 39.9375 125.445312 38.378906 119.28125 C 40.085938 117.121094 41.742188 115.3125 42.808594 114.457031 C 46.324219 111.652344 47.964844 108.382812 47.964844 108.382812 C 47.964844 108.382812 53.554688 110.003906 61.546875 110.003906 C 62.140625 110.003906 62.75 109.992188 63.375 109.972656 C 62.300781 117.789062 61.421875 125.519531 61.421875 129.859375 C 61.421875 131.941406 61.625 133.242188 62.109375 133.390625 C 62.523438 133.28125 62.925781 133.234375 63.320312 133.234375 C 68.832031 133.234375 72.648438 142.953125 72.652344 144.5 C 72.652344 144.539062 72.652344 144.574219 72.648438 144.601562 C 64.445312 144.628906 58.742188 144.640625 54.789062 144.640625 " fill-opacity="1" fill-rule="nonzero"/></g><g clip-path="url(#id7)"><path fill="#ffbd59" d="M 147.265625 43.289062 C 147.265625 43.289062 159.210938 47.144531 159.914062 55.207031 C 165.535156 58.714844 172.210938 62.222656 172.210938 62.222656 C 172.210938 62.222656 176.074219 64.324219 172.210938 69.585938 C 168.34375 74.839844 169.746094 73.265625 167.113281 75.191406 C 164.480469 77.121094 153.0625 78.875 153.0625 78.875 C 153.0625 78.875 129.523438 78.875 122.851562 84.660156 C 116.816406 95.996094 104.640625 109.785156 104.640625 109.785156 C 104.640625 109.785156 94.566406 131.058594 101.363281 133.394531 C 109.792969 135.730469 109.5625 144.613281 109.5625 144.613281 L 82.859375 144.613281 C 82.859375 144.613281 79.578125 141.574219 79.34375 139.234375 C 79.109375 136.898438 80.515625 135.027344 80.515625 135.027344 C 80.515625 135.027344 79.109375 121.707031 80.75 106.511719 C 64.121094 113.058594 47.964844 108.382812 47.964844 108.382812 C 47.964844 108.382812 46.324219 111.652344 42.808594 114.457031 C 39.296875 117.265625 29.460938 130.351562 32.269531 132.457031 C 42.808594 137.832031 41.171875 144.613281 41.171875 144.613281 L 15.410156 144.613281 C 15.410156 144.613281 11.894531 142.742188 11.660156 139.9375 C 11.425781 137.132812 13.300781 133.859375 11.660156 130.585938 C 10.019531 127.3125 6.039062 93.1875 6.039062 91.785156 C 6.039062 90.386719 7.210938 73.789062 16.347656 63.507812 C 25.480469 53.222656 42.109375 46.441406 50.308594 46.675781 C 58.503906 46.910156 84.734375 49.246094 84.734375 49.246094 C 84.734375 49.246094 87.773438 51.117188 99.488281 45.273438 C 104.40625 41.535156 113.777344 45.273438 113.777344 45.273438 C 113.777344 45.273438 121.035156 46.207031 127.125 41.535156 C 133.214844 36.859375 138.136719 38.964844 138.136719 38.964844 C 138.136719 38.964844 141.175781 34.523438 145.390625 35.222656 C 147.410156 36.675781 147.265625 43.289062 147.265625 43.289062 " fill-opacity="1" fill-rule="nonzero"/></g><path fill="#292727" d="M 155.230469 56.027344 C 155.230469 57.316406 156.070312 58.363281 157.105469 58.363281 C 158.140625 58.363281 158.976562 57.316406 158.976562 56.027344 C 158.976562 54.734375 158.140625 53.6875 157.105469 53.6875 C 156.070312 53.6875 155.230469 54.734375 155.230469 56.027344 " fill-opacity="1" fill-rule="nonzero"/><path fill="#292727" d="M 169.59375 60.8125 C 169.59375 60.8125 171.757812 61.328125 172.683594 62.566406 C 173.605469 63.808594 175.3125 65.429688 172.210938 69.585938 C 167.875 69.117188 167.40625 65.199219 167.40625 65.199219 C 167.40625 65.199219 167.09375 60.925781 169.59375 60.8125 " fill-opacity="1" fill-rule="nonzero"/><path fill="#ff914d" d="M 130.820312 39.378906 C 130.933594 39.332031 131.0625 39.285156 131.210938 39.234375 C 131.09375 39.277344 130.976562 39.320312 130.859375 39.367188 C 130.847656 39.371094 130.835938 39.375 130.820312 39.378906 " fill-opacity="1" fill-rule="nonzero"/><path fill="#ff914d" d="M 136.414062 41.238281 C 134.335938 39.648438 132.785156 39.253906 131.757812 39.253906 C 131.394531 39.253906 131.09375 39.304688 130.859375 39.367188 C 130.976562 39.320312 131.09375 39.277344 131.210938 39.234375 C 132.078125 38.925781 133.476562 38.558594 135.15625 38.558594 C 136.078125 38.558594 137.082031 38.671875 138.136719 38.964844 C 138.136719 38.964844 137.433594 39.898438 136.414062 41.238281 " fill-opacity="1" fill-rule="nonzero"/><path fill="#ff914d" d="M 130.242188 39.632812 C 130.277344 39.609375 130.472656 39.480469 130.820312 39.378906 C 130.535156 39.492188 130.34375 39.582031 130.269531 39.621094 C 130.261719 39.625 130.25 39.628906 130.242188 39.632812 " fill-opacity="1" fill-rule="nonzero"/><path fill="#ff914d" d="M 130.234375 39.636719 C 130.234375 39.636719 130.238281 39.636719 130.242188 39.632812 C 130.25 39.628906 130.261719 39.625 130.269531 39.621094 C 130.246094 39.632812 130.234375 39.636719 130.234375 39.636719 " fill-opacity="1" fill-rule="nonzero"/><path fill="#ff914d" d="M 138.136719 46.460938 C 141.398438 44.484375 143.441406 37.390625 144.480469 37.390625 C 144.511719 37.390625 144.539062 37.394531 144.5625 37.402344 C 145.578125 37.78125 145.640625 43.609375 145.640625 43.609375 C 145.640625 43.609375 145.617188 43.609375 145.566406 43.609375 C 145.15625 43.609375 143.054688 43.757812 138.136719 46.460938 " fill-opacity="1" fill-rule="nonzero"/></svg>